<svg id="圖層_2" data-name="圖層 2" xmlns="http://www.w3.org/2000/svg" viewBox="0 0 523.55 522.66"><circle cx="262" cy="226" r="183.46" style="fill:#edc956"/><circle cx="278.4" cy="74.63" r="4.96"/><circle cx="332.88" cy="90.96" r="4.96"/><path d="M321.11,106a4.14,4.14,0,0,1,2.52,5.86A24.64,24.64,0,0,1,277.36,98a4.14,4.14,0,0,1,5.33-3.51Z"/><path d="M235.11,362.86v97.45a20.25,20.25,0,0,1-20.25,20.25H161.33a20.26,20.26,0,0,1-20.26-20.25h0a20.26,20.26,0,0,1,13.07-18.94l4.1-1.55a20.25,20.25,0,0,0,13-16.84l5.59-53.71" style="fill:none;stroke:#221b18;stroke-linecap:round;stroke-miterlimit:10;stroke-width:7px"/><path d="M264.68,362.86v97.45a20.25,20.25,0,0,0,20.25,20.25h53.53a20.26,20.26,0,0,0,20.26-20.25h0a20.26,20.26,0,0,0-13.07-18.94l-4.1-1.55a20.27,20.27,0,0,1-13-16.84L323,369.27" style="fill:none;stroke:#221b18;stroke-linecap:round;stroke-miterlimit:10;stroke-width:7px"/></svg>