<svg id="圖層_2" data-name="圖層 2" xmlns="http://www.w3.org/2000/svg" viewBox="0 0 877 328"><path d="M772.91,166.39l-140,.11c-9,0-16.09,8.23-14.29,17.1a86,86,0,0,0,168.62-.14C789,174.59,782,166.38,772.91,166.39Z" style="fill:#2d2e2d"/><path d="M655.92,140.33a5.52,5.52,0,0,1-3.91-1.62l-30.17-30.16a5.54,5.54,0,1,1,7.84-7.84l30.16,30.17a5.54,5.54,0,0,1-3.92,9.45Z" style="fill:#2d2e2d"/><path d="M625.76,140.33a5.54,5.54,0,0,1-3.92-9.45L652,100.71a5.54,5.54,0,0,1,7.83,7.84l-30.16,30.16A5.53,5.53,0,0,1,625.76,140.33Z" style="fill:#2d2e2d"/><path d="M785,140.33a5.53,5.53,0,0,1-3.92-1.62l-30.16-30.16a5.54,5.54,0,0,1,7.83-7.84l30.17,30.17a5.54,5.54,0,0,1-3.92,9.45Z" style="fill:#2d2e2d"/><path d="M754.78,140.33a5.54,5.54,0,0,1-3.91-9.45L781,100.71a5.54,5.54,0,1,1,7.84,7.84L758.7,138.71A5.53,5.53,0,0,1,754.78,140.33Z" style="fill:#2d2e2d"/><path d="M326.23,84.36c-47.83,0-83.89,37-83.89,86,0,24.17,8.75,46.17,24.64,62,15.48,15.38,36.53,23.85,59.25,23.85,47.83,0,83.89-36.89,83.89-85.8S374.06,84.36,326.23,84.36Zm.15,115.3c-14.78,0-25.11-12.06-25.11-29.33,0-17.08,10.56-29.48,25.11-29.48,14.38,0,24.81,12.4,24.81,29.48S340.76,199.66,326.38,199.66Z" style="fill:#2d2e2d"/><path d="M504.23,84.36c-47.83,0-83.89,37-83.89,86,0,24.17,8.75,46.17,24.64,62,15.48,15.38,36.53,23.85,59.25,23.85,47.83,0,83.89-36.89,83.89-85.8S552.06,84.36,504.23,84.36Zm.15,115.3c-14.78,0-25.11-12.06-25.11-29.33,0-17.08,10.56-29.48,25.11-29.48,14.38,0,24.81,12.4,24.81,29.48S518.76,199.66,504.38,199.66Z" style="fill:#2d2e2d"/><path d="M230.46,195.53c0,40.11-31.16,69.22-74.1,69.22C136.58,264.75,101,258,92,225l48.16-16.71a18.94,18.94,0,1,0-2.79-7.18l-45.74-11.2L114.7,82.56H220.29V127.9H157l-.51,8.15a55.48,55.48,0,0,1,10.5-1c13.91,0,28.73,4.54,39.65,12.15S230.46,169.34,230.46,195.53Z" style="fill:#2d2e2d"/></svg>