<svg id="圖層_2" data-name="圖層 2" xmlns="http://www.w3.org/2000/svg" viewBox="0 0 523.55 522.66"><path d="M160.06,322,101.4,399.84a20.25,20.25,0,0,1-28.36,4L30.29,371.59a20.25,20.25,0,0,1-4-28.36h0A20.26,20.26,0,0,1,48.14,336l4.22,1.23a20.26,20.26,0,0,0,20.48-5.64L109.64,292" style="fill:none;stroke:#221b18;stroke-linecap:round;stroke-miterlimit:10;stroke-width:7px"/><circle cx="275" cy="224" r="183.46" style="fill:#edc956"/><circle cx="256.63" cy="116.49" r="4.96"/><circle cx="205.8" cy="90.99" r="4.96"/><ellipse cx="220" cy="136" rx="12" ry="20"/><path d="M301.72,360.86v97.45a20.26,20.26,0,0,1-20.26,20.25H227.93a20.25,20.25,0,0,1-20.25-20.25h0a20.27,20.27,0,0,1,13.06-18.94l4.11-1.55a20.25,20.25,0,0,0,13-16.84l5.6-53.71" style="fill:none;stroke:#221b18;stroke-linecap:round;stroke-miterlimit:10;stroke-width:7px"/></svg>