<svg id="圖層_2" data-name="圖層 2" xmlns="http://www.w3.org/2000/svg" viewBox="0 0 1445 421"><circle cx="347.16" cy="195.43" r="12.82" style="fill:#1e1f24"/><path d="M717.65,212.27A41.51,41.51,0,0,0,682,149.53H611.06V290.47h87.2A41.57,41.57,0,0,0,739.78,249,42.08,42.08,0,0,0,717.65,212.27Zm-39.07,36.94a9.49,9.49,0,0,1-9.47,9.48H655V239.74h14.13A9.48,9.48,0,0,1,678.58,249.21Zm-9.47-47.52H655V182.74h14.13a9.48,9.48,0,0,1,0,18.95Z" style="fill:#ffc900"/><path d="M195.65,212.27A41.51,41.51,0,0,0,160,149.53H89.06V290.47h87.2A41.57,41.57,0,0,0,217.78,249,42.08,42.08,0,0,0,195.65,212.27Zm-39.07,36.94a9.49,9.49,0,0,1-9.47,9.48H133V239.74h14.13A9.48,9.48,0,0,1,156.58,249.21Zm-9.47-47.52H133V182.74h14.13a9.48,9.48,0,0,1,0,18.95Z" style="fill:#ffc900"/><path d="M847.9,156.24v74.27a15.41,15.41,0,0,1-15.39,15.39H806.84a15.42,15.42,0,0,1-15.39-15.39V156.24H745.07v74.27a61.84,61.84,0,0,0,61.77,61.77h25.67a61.84,61.84,0,0,0,61.77-61.77V156.24Z" style="fill:#ffc900"/><path d="M987.21,152.89H910.14V290.24h77.07a68.68,68.68,0,1,0,0-137.35Zm0,88.21H959.28V202h27.93a19.54,19.54,0,1,1,0,39.07Z" style="fill:#ffc900"/><path d="M1148.55,152.89h-77.07V290.24h77.07a68.68,68.68,0,1,0,0-137.35Zm0,88.21h-27.93V202h27.93a19.54,19.54,0,1,1,0,39.07Z" style="fill:#ffc900"/><polygon points="484.43 151.54 448.11 187.86 411.8 151.54 352.52 151.15 424.95 229.99 424.95 294 471.52 294 471.52 229.74 543.71 151.15 484.43 151.54" style="fill:#ffc900"/><polygon points="1334.43 151.16 1298.11 187.48 1261.8 151.16 1202.52 150.77 1274.95 229.61 1274.95 294 1321.52 294 1321.52 229.36 1393.71 150.77 1334.43 151.16" style="fill:#ffc900"/><circle cx="256.26" cy="173.67" r="12.82" transform="translate(-52.18 147.26) rotate(-29.23)" style="fill:#1e1f24"/><path d="M341.37,228.73l-94.65-24.86a10.11,10.11,0,0,0-12.71,9,60.14,60.14,0,0,0,114,30A10.11,10.11,0,0,0,341.37,228.73Z" style="fill:#1e1f24"/></svg>