<svg id="圖層_2" data-name="圖層 2" xmlns="http://www.w3.org/2000/svg" viewBox="0 0 523.55 522.66"><path d="M123.67,406.55a2.87,2.87,0,0,0-.39-.23c-5.33-2.42-6.74-5.78-4.7-11.23Q128,370,137.39,344.89l1.88-5q6.9-18.39,13.82-36.78c12.8-34,26-69.2,38.8-103.9,1.61-4.39,4.56-6.9,8.09-6.9a10.49,10.49,0,0,1,7.21,3.46c30.4,30.71,61.49,61.75,91.55,91.78l29.92,29.89.29.29c.24.24.48.48.71.73a8.28,8.28,0,0,1,2.45,7.43,7.91,7.91,0,0,1-5.18,5.49c-5.45,2.15-11,4.22-16.45,6.23l-7.14,2.65L128.42,405.87a7.43,7.43,0,0,0-1.2.58l-.19.1Zm14.41-20.46,25.83-9.69-14.47-20.57Zm40.36-106.61c-.15.23-.28.41-.39.56a4.28,4.28,0,0,0-.58,1c-6.53,17.39-13.29,35.38-19.94,53.27a5.15,5.15,0,0,0,.07,3.76A137.23,137.23,0,0,0,178.79,370l.58.65L218.15,356,217,354.66a158.26,158.26,0,0,1-36.23-74.72l-.59-3.05Zm21.9-59.37c-2.17,5.78-4.29,11.44-6.39,17.11a5,5,0,0,0-.25,1.6c0,.16,0,.31,0,.47a133.32,133.32,0,0,0,1.12,32.51A143,143,0,0,0,231.38,348a14.84,14.84,0,0,0,1.24,1.16c.19.16.38.32.56.49l.58.52,39.68-14.88L272,333.24c-.26-.39-.47-.68-.65-1-1.46-2.35-2.95-4.68-4.45-7-3.25-5.06-6.62-10.29-9.42-15.67A149.55,149.55,0,0,1,241.35,255a10.09,10.09,0,0,0-3.09-6.65c-7.77-7.63-15.59-15.47-23.16-23.05l-8.46-8.47c-.47-.47-.95-.91-1.5-1.42l-2.25-2.08Zm59.8,54.26A143.4,143.4,0,0,0,287.91,329l.58.71,22-8.26L259,269.83Z"/><path d="M290,235.46a7.57,7.57,0,0,1-5.29-12.9c3.34-3.36,7.68-5,13.28-5l1.39,0c1.66.07,3.35.29,5.15.52l2.75.34,1.6.18-.2-1.6c-.06-.45-.13-.89-.2-1.33a24.07,24.07,0,0,1-.29-2.57c0-.83-.08-1.67-.13-2.5a32.4,32.4,0,0,1,.06-6.62c1.36-8.94,8.09-14.49,17.58-14.49l1.29,0c1.81.1,3.61.29,5.51.49.9.09,1.81.19,2.74.27l1.51.15-.13-1.52q-.12-1.41-.27-2.79c-.19-2-.38-3.81-.45-5.67-.35-10,5-17.12,14.08-18.61a20.46,20.46,0,0,1,3.33-.24c1.17,0,2.4.07,3.58.13.94,0,1.87.1,2.8.12a16.93,16.93,0,0,1,2.24.27c.43.07.89.14,1.39.2l1.6.22-.17-1.61c-.09-.75-.18-1.48-.28-2.19a31.27,31.27,0,0,1-.39-4.18v-.88a33.79,33.79,0,0,1,.53-7.57c1.69-7.46,8-12.43,16.08-12.67l1,0c2,0,4,.17,6.18.35,1.19.1,2.4.2,3.66.28l1.53.09-.4-3.05c-.14-1-.28-2.08-.4-3.14-.9-7.66.41-12.95,4.25-17.16a7.4,7.4,0,0,1,5.53-2.72,8,8,0,0,1,2.45.4,7.61,7.61,0,0,1,5,4.66,6.9,6.9,0,0,1-.74,6.2c-2,3-1.8,5.84-1.33,8.44.14.8.3,1.6.45,2.4a62.57,62.57,0,0,1,1.09,7c.34,4.47-.53,7.86-2.58,10.07-1.9,2.06-4.85,3.1-8.76,3.1-.61,0-1.25,0-1.91-.07a53.06,53.06,0,0,1-5.67-.87c-1.24-.24-2.52-.48-3.8-.66s-2.44-.24-3.73-.31l-1.95-.12-1.36-.1v1.37c0,.62,0,1.2,0,1.77a20.89,20.89,0,0,0,.08,3.55c.23,1.63.53,3.27.82,4.85s.66,3.51.88,5.26c.52,4.16-.29,7.59-2.36,9.94s-5.12,3.46-9,3.46l-.78,0a42.81,42.81,0,0,1-6.1-.82c-1.21-.23-2.42-.45-3.63-.61-1.37-.19-2.75-.31-4.35-.44l-2.59-.23-1.55-.15.17,1.55c.1.95.19,1.83.28,2.65.17,1.71.32,3.18.53,4.67.16,1.16.38,2.32.59,3.47a41.14,41.14,0,0,1,.83,6c.16,3.81-.82,6.94-2.83,9s-4.79,3.05-8.29,3.05h0l-1.1,0a62.21,62.21,0,0,1-7.52-1.09c-1.48-.28-3-.56-4.54-.78a11.87,11.87,0,0,0-1.69-.11l-1.34,0c-.54,0-1.13,0-1.8,0h-1.46l.66,4.54c.31,2.17.61,4.19.87,6.22.09.74.19,1.49.3,2.24a47.78,47.78,0,0,1,.61,6.61c0,6-3.53,9.83-9.09,10.11l-1.36,0a62.73,62.73,0,0,1-9.87-1.08l-2.14-.34a18.46,18.46,0,0,0-3-.28,9.76,9.76,0,0,0-5.65,1.69A6.44,6.44,0,0,1,290,235.46Z" style="fill:#ffc900"/><path d="M327.19,272.79a7.49,7.49,0,0,1-5.31-12.49c16.71-16.8,34.63-26.22,54.79-28.82a81.62,81.62,0,0,1,10.37-.7,61.43,61.43,0,0,1,17.32,2.37,7.07,7.07,0,0,1,5.35,6.32,6.63,6.63,0,0,1-3,6.88,14.3,14.3,0,0,1-3.14,1.36l-.76.27-.47-.1-.62,0a5.23,5.23,0,0,1-.95-.1,63.65,63.65,0,0,0-14.87-1.81c-14,0-27.57,4.83-41.43,14.77a80.24,80.24,0,0,0-6.54,5.44c-1.39,1.23-2.82,2.51-4.27,3.68a14.21,14.21,0,0,1-4.51,2.7A6.66,6.66,0,0,1,327.19,272.79Z" style="fill:#ffc900"/><path d="M258.76,204.26a7.55,7.55,0,0,1-7.4-7.44,8,8,0,0,1,2.33-5.56c9.2-9.48,15.61-18.92,19.58-28.88,5.34-13.4,6.41-26.06,3.28-38.71a7.49,7.49,0,0,1,5.18-9,8.17,8.17,0,0,1,2.14-.28,6.9,6.9,0,0,1,7,5.16c1,4.18,1.65,8.53,2.29,12.74.22,1.46.44,2.91.67,4.36l-.39.06v1.06c-.29,20.68-7.57,39.23-22.26,56.72-2,2.39-4.19,4.77-6.68,7.27a8.07,8.07,0,0,1-5.71,2.54Z" style="fill:#ffc900"/><path d="M377.34,297.77a7.62,7.62,0,0,1-5.39-2.32,7.35,7.35,0,0,1-2.16-5.35,7.6,7.6,0,0,1,7.55-7.39,7.53,7.53,0,0,1,.05,15.06Z" style="fill:#ffc900"/><path d="M240.15,160.59a7.54,7.54,0,0,1-7.49-7.43,7.43,7.43,0,0,1,2.1-5.32,7.51,7.51,0,0,1,5.31-2.24h0a7.48,7.48,0,0,1,7.65,7.36,7.65,7.65,0,0,1-7.44,7.63Z" style="fill:#ffc900"/><path d="M327.47,148.06A7.49,7.49,0,0,1,322,135.39a7.55,7.55,0,0,1,5.31-2.31h.15a7.41,7.41,0,0,1,7.44,7.38,7.32,7.32,0,0,1-7.34,7.6Z" style="fill:#ffc900"/><path d="M389.81,210.44a7.51,7.51,0,1,1,7.5-7.53,7.51,7.51,0,0,1-7.5,7.53Z" style="fill:#ffc900"/></svg>