<svg id="圖層_2" data-name="圖層 2" xmlns="http://www.w3.org/2000/svg" viewBox="0 0 523.55 522.66"><line x1="74.85" y1="209.78" x2="197.49" y2="209.78" style="fill:none;stroke:#ec6c00;stroke-linecap:round;stroke-miterlimit:10;stroke-width:16px"/><line x1="115.89" y1="281.78" x2="203.49" y2="281.78" style="fill:none;stroke:#ec6c00;stroke-linecap:round;stroke-miterlimit:10;stroke-width:16px"/><line x1="100.05" y1="331.06" x2="261.09" y2="331.06" style="fill:none;stroke:#ec6c00;stroke-linecap:round;stroke-miterlimit:10;stroke-width:16px"/><path d="M257.81,129.57a49.3,49.3,0,0,1,6.21-4c8.1-3.78,15.77-2.63,22.92,2.57.46.33.89.69,1.33,1q78.26,62.3,156.53,124.56c4.26,3.4,7.53,7.43,8.83,12.84,1.72,7.14.08,13.54-4.37,19.26-3.3,4.25-6.7,8.44-10.06,12.66l-69.87,87.79c-4.74,5.95-10.75,9.29-18.49,9.12a22.23,22.23,0,0,1-12.73-4.54c-.46-.33-.89-.69-1.33-1q-78.45-62.43-156.91-124.86c-4.41-3.51-7.64-7.75-8.84-13.37a21.3,21.3,0,0,1,2.22-15.14,8.29,8.29,0,0,0,.41-1.12Zm22.55,11.92c0,.69,0,1,0,1.31q6.67,57.4,13.36,114.79a21.65,21.65,0,0,0,5.4,12.39c5.47,6,12.34,8,20.28,7.07q56.24-6.3,112.47-12.5c.76-.08,1.51-.23,2.6-.39Zm-90.06,113L344.58,377.25c-3.42-29.29-6.8-58.17-10.2-87.2-1.07.08-1.93.14-2.8.22-5,.5-9.91,1.36-14.87,1.45-15,.26-26.19-6.4-33.48-19.51a35.83,35.83,0,0,1-4-13.8c-.48-4.46-.93-8.92-1.42-13.61Zm85.57-25.09c-3.28-28.15-6.64-57.07-10.05-86.38l-77.34,97.15ZM358.8,375.3l.52,0,77-96.72-86.49,10.52C352.78,317.46,355.79,346.38,358.8,375.3Z" style="fill:#1e1f24"/></svg>